<svg width="80" height="82" fill="none" xmlns="http://www.w3.org/2000/svg"><path d="M38 2.155a4 4 0 0 1 4 0l30.641 17.69a4 4 0 0 1 2 3.464v35.382a4 4 0 0 1-2 3.464L42 79.845a4 4 0 0 1-4 0L7.359 62.155a4 4 0 0 1-2-3.464V23.309a4 4 0 0 1 2-3.464L38 2.155Z" fill="#3B3D4F"/><path opacity=".5" d="M38 2.155a4 4 0 0 1 4 0l30.641 17.69a4 4 0 0 1 2 3.464v35.382a4 4 0 0 1-2 3.464L42 79.845a4 4 0 0 1-4 0L7.359 62.155a4 4 0 0 1-2-3.464V23.309a4 4 0 0 1 2-3.464L38 2.155Z" fill="#3B3D4F" stroke="#49BD8C" stroke-width="3"/><g opacity=".7" clip-path="url('#clip0_1_1052')" fill="#4AC18E"><path d="M58.696 39.696H56.89c-.637-8.31-7.277-14.95-15.586-15.586v-1.806a1.304 1.304 0 1 0-2.608 0v1.806c-8.31.637-14.95 7.277-15.586 15.586h-1.806a1.304 1.304 0 1 0 0 2.608h1.806c.637 8.31 7.277 14.95 15.586 15.587v1.805a1.304 1.304 0 1 0 2.608 0V57.89c8.31-.638 14.95-7.278 15.587-15.587h1.805a1.305 1.305 0 0 0 0-2.608ZM41.304 26.718c6.872.623 12.355 6.106 12.978 12.978h-2.62c-.604-5.432-4.926-9.754-10.358-10.358v-2.62Zm-2.608 0v2.62c-5.432.604-9.754 4.926-10.358 10.358h-2.62c.623-6.872 6.106-12.355 12.978-12.978Zm0 28.564c-6.872-.623-12.355-6.106-12.978-12.978h2.62c.604 5.432 4.926 9.754 10.358 10.358v2.62ZM40 47.522c-.72 0-1.304.584-1.304 1.304v1.2a9.136 9.136 0 0 1-7.722-7.722h1.2a1.304 1.304 0 1 0 0-2.608h-1.2a9.136 9.136 0 0 1 7.722-7.722v1.2a1.304 1.304 0 1 0 2.608 0v-1.2a9.136 9.136 0 0 1 7.722 7.722h-1.2c-.72 0-1.304.584-1.304 1.304 0 .72.584 1.296 1.304 1.296h1.2c-.574 3.99-3.732 7.156-7.722 7.73v-1.2c0-.72-.584-1.304-1.304-1.304Zm1.304 7.76v-2.62c5.432-.604 9.754-4.935 10.358-10.367h2.62c-.623 6.872-6.106 12.364-12.978 12.987Z"/><path d="M40 37.087A3.917 3.917 0 0 0 36.087 41 3.917 3.917 0 0 0 40 44.913 3.917 3.917 0 0 0 43.913 41 3.917 3.917 0 0 0 40 37.087Z"/></g><defs><clipPath id="clip0_1_1052"><path fill="#fff" transform="translate(20 21)" d="M0 0h40v40H0z"/></clipPath></defs></svg>