<svg width="80" height="82" fill="none" xmlns="http://www.w3.org/2000/svg"><path d="M38 2.155a4 4 0 0 1 4 0l30.641 17.69a4 4 0 0 1 2 3.464v35.382a4 4 0 0 1-2 3.464L42 79.845a4 4 0 0 1-4 0L7.359 62.155a4 4 0 0 1-2-3.464V23.309a4 4 0 0 1 2-3.464L38 2.155Z" fill="#3B3D4F"/><path opacity=".5" d="M38 2.155a4 4 0 0 1 4 0l30.641 17.69a4 4 0 0 1 2 3.464v35.382a4 4 0 0 1-2 3.464L42 79.845a4 4 0 0 1-4 0L7.359 62.155a4 4 0 0 1-2-3.464V23.309a4 4 0 0 1 2-3.464L38 2.155Z" fill="#3B3D4F" stroke="#49BD8C" stroke-width="3"/><path d="M58.75 30.85a1.55 1.55 0 0 0-1.337-1.463l-16.25-3.2a5.689 5.689 0 0 0-2.25 0l-16.25 3.2a1.55 1.55 0 0 0-1.413 1.463v19.475a3.437 3.437 0 0 0 2.7 3.1l13.55 4.363c1.604.5 3.321.5 4.925 0l13.588-4.363a3.438 3.438 0 0 0 2.737-3.1V30.85Zm-19.388-2.213a3.124 3.124 0 0 1 1.25 0L52.662 31l-10.737 2.688a8.025 8.025 0 0 1-3.85 0L27.337 31l12.025-2.363ZM23.75 32.675l13.75 3.438c.41.11.828.19 1.25.237V48c-.15 0-.3 0-.45-.1l-13.575-4.4c-.688-.212-.975-.575-.975-.725v-10.1ZM24.725 51c-.688-.212-.975-.575-.975-.712v-4.5l.2.087 13.55 4.4c.408.13.826.226 1.25.288v5a2.91 2.91 0 0 1-.45-.1L24.725 51Z" fill="#4AC18E" opacity=".7"/></svg>