<svg width="90" height="98" fill="none" xmlns="http://www.w3.org/2000/svg"><g filter="url('#filter0_dd_1_1108')"><path d="M43 10.155a4 4 0 0 1 4 0l30.641 17.69a4 4 0 0 1 2 3.464v35.382a4 4 0 0 1-2 3.464L47 87.845a4 4 0 0 1-4 0l-30.641-17.69a4 4 0 0 1-2-3.464V31.309a4 4 0 0 1 2-3.464L43 10.155Z" fill="#3B3D4F"/><path d="M43 10.155a4 4 0 0 1 4 0l30.641 17.69a4 4 0 0 1 2 3.464v35.382a4 4 0 0 1-2 3.464L47 87.845a4 4 0 0 1-4 0l-30.641-17.69a4 4 0 0 1-2-3.464V31.309a4 4 0 0 1 2-3.464L43 10.155Z" stroke="#4AC18E" stroke-width="3"/></g><g clip-path="url('#clip0_1_1108')" fill="#4AC18E"><path d="M61.484 29a3.51 3.51 0 0 0-3.3 2.344h-3.809c-.231 0-.458.068-.65.197l-4.244 2.829c-.447-.138-.9-.262-1.363-.359.89 1.716 1.563 4.107 2.022 6.708h7.677a15.357 15.357 0 0 0-5.74-5.264l2.653-1.767h3.455a3.51 3.51 0 0 0 3.3 2.343A3.52 3.52 0 0 0 65 32.516 3.52 3.52 0 0 0 61.484 29ZM45 33.688c-.763 0-1.984 2.822-2.768 7.03h5.536c-.784-4.208-2.005-7.03-2.768-7.03ZM41.861 43.063a47.763 47.763 0 0 0-.356 4.765h6.99a47.763 47.763 0 0 0-.356-4.766H41.86ZM30.941 43.063c-.611 1.46-.99 3.117-1.116 4.765h9.335a51.23 51.23 0 0 1 .347-4.766H30.94ZM48.495 50.172h-6.99c.042 1.645.167 3.302.356 4.766h6.278c.189-1.464.314-3.12.356-4.766ZM59.06 54.938c.61-1.461.988-3.118 1.115-4.766H50.84a51.23 51.23 0 0 1-.347 4.766h8.566ZM45 64.313c.763 0 1.984-2.823 2.768-7.032h-5.536c.784 4.21 2.005 7.032 2.768 7.032ZM41.882 34.011c-4.062.848-7.526 3.325-9.699 6.708h7.677c.459-2.601 1.133-4.992 2.022-6.708ZM28.594 69a3.51 3.51 0 0 0 3.3-2.344h3.731c.231 0 .458-.068.65-.197l4.244-2.829c.447.138.9.262 1.363.359-.89-1.716-1.563-4.107-2.022-6.708h-7.677a15.362 15.362 0 0 0 5.74 5.264l-2.653 1.767h-3.376a3.51 3.51 0 0 0-3.3-2.343c-1.939 0-3.594 1.577-3.594 3.515C25 67.423 26.655 69 28.594 69ZM29.825 50.172c.127 1.648.505 3.305 1.116 4.766h8.566a51.23 51.23 0 0 1-.347-4.766h-9.335ZM48.118 63.989c4.062-.848 7.526-3.325 9.699-6.708H50.14c-.459 2.601-1.133 4.992-2.022 6.708ZM60.175 47.828c-.127-1.648-.505-3.304-1.116-4.766h-8.566c.193 1.571.307 3.24.347 4.766h9.335Z"/></g><defs><clipPath id="clip0_1_1108"><path fill="#fff" transform="translate(25 29)" d="M0 0h40v40H0z"/></clipPath><filter id="filter0_dd_1_1108" x=".859" y=".119" width="88.282" height="97.762" filterUnits="userSpaceOnUse" color-interpolation-filters="sRGB"><feFlood flood-opacity="0" result="BackgroundImageFix"/><feColorMatrix in="SourceAlpha" values="0 0 0 0 0 0 0 0 0 0 0 0 0 0 0 0 0 0 127 0" result="hardAlpha"/><feOffset/><feGaussianBlur stdDeviation="2"/><feComposite in2="hardAlpha" operator="out"/><feColorMatrix values="0 0 0 0 0.290196 0 0 0 0 0.756863 0 0 0 0 0.556863 0 0 0 0.7 0"/><feBlend in2="BackgroundImageFix" result="effect1_dropShadow_1_1108"/><feColorMatrix in="SourceAlpha" values="0 0 0 0 0 0 0 0 0 0 0 0 0 0 0 0 0 0 127 0" result="hardAlpha"/><feOffset/><feGaussianBlur stdDeviation="4"/><feComposite in2="hardAlpha" operator="out"/><feColorMatrix values="0 0 0 0 0.290196 0 0 0 0 0.756863 0 0 0 0 0.556863 0 0 0 0.7 0"/><feBlend in2="effect1_dropShadow_1_1108" result="effect2_dropShadow_1_1108"/><feBlend in="SourceGraphic" in2="effect2_dropShadow_1_1108" result="shape"/></filter></defs></svg>