<svg width="72" height="36" fill="none" xmlns="http://www.w3.org/2000/svg"><g filter="url('#filter0_d_1_878')"><g clip-path="url('#clip0_1_878')"><path d="M21.079 9.251c-.752-.51-3.18-.793-7.688-1.168-2.693-.224-6.038-.502-6.52-.854-.154-.169-.317-.621-.317-1.392 0-1.34.33-2.27.98-2.764.445-.35 1.854-.934 6.305-.934 2.552 0 5.374.23 7.039.458.005 0 .148.018.308.018.223 0 .37-.033.447-.101.106-.094.111-.28.103-.45l-.001-.024c0-.424-.469-1.166-1.015-1.426C20.025.257 17.089 0 13.736 0 9.323 0 6.889.463 5.598 1.547 4.553 2.46 4 4.074 4 6.218c0 1.257.588 2.439 1.155 2.853.65.507 3.073.792 7.61 1.17 2.79.232 5.948.495 6.525.839.272.258.41.767.41 1.51 0 1.27-.335 2.29-.898 2.732l-.017.015c-.624.537-2.615.8-6.086.8-2.665 0-5.288-.196-7.798-.583l-.024-.003a.593.593 0 0 0-.67.583c0 .392.406 1.089.823 1.413l.023.016c.653.45 3.786.763 7.622.763 4.52 0 7.031-.447 8.143-1.451.993-.914 1.54-2.598 1.54-4.742 0-1.376-.662-2.459-1.28-2.882ZM67.394 15.47h-.038l-.038.006c-1.158.16-3.872.533-7.166.533-4.404 0-6.447-.353-7.54-1.304C51.594 13.8 51.099 12 51.099 9.2c0-2.685.65-4.69 1.828-5.646 1.204-.905 3.593-1.364 7.1-1.364 3.225 0 5.565.297 7.113.494l.085.01a.585.585 0 0 0 .722-.58c0-.429-.473-1.12-.973-1.425l-.027-.016-.02-.01C66.122.279 63.156 0 59.875 0c-4.295 0-7.14.63-8.7 1.929-1.691 1.421-2.585 3.998-2.585 7.45 0 3.391.661 5.65 2.023 6.906 1.5 1.376 4.11 1.938 9.012 1.938 3.5 0 6.501-.287 7.294-.696.483-.239 1.08-1.063 1.08-1.495-.001-.31-.273-.561-.606-.561ZM35.468 0c-5.88 0-10.665 4.682-10.665 10.436 0 2.976 1.304 5.818 3.575 7.797a1.159 1.159 0 0 0 1.614-.094c.201-.22.303-.505.286-.801a1.104 1.104 0 0 0-.382-.77 8.14 8.14 0 0 1-2.81-6.134c0-4.525 3.76-8.206 8.38-8.206 4.622 0 8.381 3.681 8.381 8.206a8.149 8.149 0 0 1-2.814 6.136 1.098 1.098 0 0 0-.094 1.57 1.154 1.154 0 0 0 1.613.092 10.346 10.346 0 0 0 3.577-7.798C46.132 4.682 41.348 0 35.468 0Z" fill="#015BBB"/><path d="M35.467 10.682c-.636 0-1.152.51-1.152 1.136v13.836c0 .626.517 1.135 1.152 1.135.636 0 1.153-.509 1.153-1.135V11.818c0-.626-.517-1.136-1.153-1.136Z" fill="#015BBB"/><path d="M67.81 27.383c.09 0 .162.023.218.064.049.036.074.08.082.093m-.3-.157.173.237m-.174-.237h-.006c-.935.039-4.327.064-6.223.064-1.476 0-2.639 0-3.607-.01-.148-.004-.232-.018-.276-.04-.018-.008-.023-.015-.025-.018-.002-.005-.008-.017-.008-.048v-2.122c0-.035.001-.055.003-.065a.367.367 0 0 1 .083-.016 2.56 2.56 0 0 1 .247-.008h7.529c.249 0 .468 0 .591-.023l.01-.002.01-.002a.664.664 0 0 0 .24-.154.648.648 0 0 0 .085-.1.27.27 0 0 0 .051-.146c0-.093-.063-.157-.117-.19a.422.422 0 0 0-.22-.054h-8.194c-.1 0-.173 0-.23-.004a.471.471 0 0 1-.086-.01.35.35 0 0 1-.002-.047v-2.086c0-.041.004-.062.008-.071.002-.006.003-.007.007-.01a.188.188 0 0 1 .066-.02c.041-.008.097-.013.172-.015.399-.008.959-.012 1.76-.012l1.019.001h.4l.021.001h.335c1.456 0 4.84.02 5.928.033l.459.005h.002a.349.349 0 0 0 .203-.057.248.248 0 0 0 .106-.207v-.015l-.003-.015a.315.315 0 0 0-.07-.132.761.761 0 0 0-.1-.096.633.633 0 0 0-.258-.137h-.005a3.158 3.158 0 0 0-.278-.015 42.46 42.46 0 0 0-.548-.009c-.446-.005-1.037-.009-1.682-.011-1.29-.005-2.8-.005-3.796-.005h-.001c-1.657 0-2.855 0-4.026.019-.162 0-.31.03-.424.098a.388.388 0 0 0-.198.338v5.546c0 .17.042.328.167.437.12.105.286.138.469.138m10.412-.708-10.412.708m10.713-.551a.04.04 0 0 1 .002.003l-.055.033-.074.044m.127-.08-.002-.004-.125.084m.127-.08.042.061-.023.068m-.146-.05.003.005-.001.004m.144.041a.267.267 0 0 0 .003-.012l-.116-.023-.031-.006m.144.041v.003l-.002.004-.142-.048m.144.041a.354.354 0 0 1-.065.124.797.797 0 0 1-.099.105.767.767 0 0 1-.25.156l-.012.004-.012.002a3.06 3.06 0 0 1-.266.015c-.133.005-.31.008-.521.012-.423.007-.984.013-1.602.018-1.237.01-2.7.014-3.736.014-1.63 0-2.917-.01-4.17-.028m10.589-.463c-.017.083-.197.245-.317.284l-10.27.18h-.001M51.89 21.919a.42.42 0 0 0-.07-.248.348.348 0 0 0-.18-.132.62.62 0 0 0-.334.001l.433.378m.15 0v.002l-.15-.002m.15 0h-.15m.15 0v5.934c0 .031.001.102-.03.164a.227.227 0 0 1-.097.102.285.285 0 0 1-.137.032h-.242a.747.747 0 0 1-.187-.018.252.252 0 0 1-.153-.105.274.274 0 0 1-.039-.148l.001-.052.001-.047.01-5.12h.15m.573-.742V27.846c0 .074 0 .154-.114.154h-.242c-.234 0-.232-.054-.228-.168l.001-.052.01-5.12m0 0v-.132.132Zm-10.494-.053v-.689c0-.285.263-.267.398-.233l.037-.145a.621.621 0 0 0-.333 0 .352.352 0 0 0-.182.13.421.421 0 0 0-.07.248V22.607h.15Zm0 0h-.15v5.245c0 .031-.001.102.029.164.02.04.05.077.097.102a.286.286 0 0 0 .138.032h.242c.07 0 .133-.004.186-.018a.251.251 0 0 0 .154-.104.274.274 0 0 0 .039-.148l-.001-.05v-.002l-.001-.047-.01-5.121v-.035m-.723-.018.723.018m0 0a469.243 469.243 0 0 0 2.251 1.414l1.705 1.06.562.35.158.097.041.026.01.006.004.002.08-.127m-4.81-2.828 9.62.034v-.034a477.258 477.258 0 0 1-2.251 1.414l-1.706 1.06-.561.35-.158.097-.041.026-.01.006-.004.002-.08-.127m0 0-.079.127.08.05.078-.05-.079-.127Zm.002-.606.081-.126-.003-.003-.01-.006-.04-.026-.028-.018-.028.018-.04.026-.01.006-.003.002.08.127ZM20.015 21.56c.885-.026 4.735-.045 6.081-.045 1.236 0 2.05.015 2.62.06.567.044.902.117 1.171.243.608.27.93.857.928 1.614m-10.8-1.871 10.65 1.871m-10.65-1.871h-.001a.615.615 0 0 0-.32.082.322.322 0 0 0-.138.28v5.91c0 .033 0 .122.068.19.067.067.161.078.241.078h.257a.38.38 0 0 0 .22-.055.252.252 0 0 0 .103-.216v-2.159c0-.15.03-.161.03-.162a.218.218 0 0 1 .084-.02c.052-.005.117-.006.204-.006l6.297.006 1.754 2.32.005.005.005.006c.106.113.194.2.312.247.115.046.244.048.41.048h.043a.33.33 0 0 0 .231-.08l-.105-.107.105.107a.206.206 0 0 0 .06-.12.227.227 0 0 0-.035-.15v-.001l-.007-.01-1.699-2.276m-8.124-3.917 8.124 3.917m2.676-2.046h-.15m.15 0h-.15m.15 0c0 1.054-.682 1.655-1.32 1.86m1.17-1.86c0 .977-.628 1.528-1.216 1.717m.046.143h.001l-.047-.143m.046.143c-.31.103-.727.162-1.356.186m1.356-.186-.046-.143m0 0-1.31.33m-7.615-3.26h.006c.715-.028 4.45-.036 5.524-.036 1.125 0 1.86.013 2.36.048.501.036.743.094.894.171l.009.004c.143.063.316.165.452.332.135.165.24.401.24.746 0 .595-.431 1.054-1.022 1.227-.29.073-.8.105-1.848.105h-6.346c-.104 0-.18-.003-.237-.01a.243.243 0 0 1-.091-.024c-.003-.002-.005-.003-.008-.014a.392.392 0 0 1-.011-.113v-2.43h.005a.403.403 0 0 1 .073-.006ZM4.31 21.56h-.004a.625.625 0 0 0-.318.085.321.321 0 0 0-.138.28v5.909c0 .034 0 .122.068.19.067.067.161.078.241.078h.257a.38.38 0 0 0 .22-.054.252.252 0 0 0 .102-.217v-2.159c0-.15.03-.16.032-.161a.218.218 0 0 1 .083-.02c.052-.006.117-.007.204-.007h6.602c1.082 0 1.71-.053 2.13-.194.636-.204 1.32-.786 1.32-1.842 0-.754-.318-1.36-.928-1.63-.269-.126-.604-.2-1.172-.244-.568-.044-1.383-.059-2.619-.059-1.346 0-5.196.019-6.08.046Zm.508.646h.006c.715-.028 4.45-.036 5.524-.036 1.125 0 1.86.013 2.36.048.501.036.743.093.894.17v.001l.009.004c.143.062.316.165.452.332.134.165.24.4.24.745 0 .595-.432 1.055-1.024 1.228-.29.073-.8.104-1.848.104H5.087c-.104 0-.18-.003-.237-.01a.242.242 0 0 1-.09-.023h-.001c-.003-.002-.005-.003-.008-.014a.394.394 0 0 1-.011-.113v-2.43h.005a.404.404 0 0 1 .073-.006Z" fill="#FFD501" stroke="#FFD501" stroke-width=".3"/></g></g><defs><clipPath id="clip0_1_878"><path fill="#fff" transform="translate(4)" d="M0 0h64v28H0z"/></clipPath><filter id="filter0_d_1_878" x="0" y="0" width="72" height="36" filterUnits="userSpaceOnUse" color-interpolation-filters="sRGB"><feFlood flood-opacity="0" result="BackgroundImageFix"/><feColorMatrix in="SourceAlpha" values="0 0 0 0 0 0 0 0 0 0 0 0 0 0 0 0 0 0 127 0" result="hardAlpha"/><feOffset dy="4"/><feGaussianBlur stdDeviation="2"/><feComposite in2="hardAlpha" operator="out"/><feColorMatrix values="0 0 0 0 0 0 0 0 0 0 0 0 0 0 0 0 0 0 0.25 0"/><feBlend in2="BackgroundImageFix" result="effect1_dropShadow_1_878"/><feBlend in="SourceGraphic" in2="effect1_dropShadow_1_878" result="shape"/></filter></defs></svg>