<svg aria-hidden="true" style="width:0;height:0;position:absolute;overflow:hidden" xmlns="http://www.w3.org/2000/svg"><defs><symbol id="icon-card_icon2" viewBox="0 0 31 32"><path fill="#3b3d4f" style="fill:var(--color1,#3b3d4f)" d="M14.829.841a1.56 1.56 0 0 1 1.561 0l11.957 6.904c.483.279.78.794.78 1.352v13.807c0 .558-.298 1.073-.78 1.352L16.39 31.16a1.56 1.56 0 0 1-1.561 0L2.872 24.256a1.56 1.56 0 0 1-.78-1.352V9.097c0-.558.298-1.073.78-1.352L14.829.841z"/><path fill="#3b3d4f" style="fill:var(--color1,#3b3d4f);stroke:var(--color2,#49bd8c)" opacity=".5" stroke="#49bd8c" stroke-width="1.171" d="M14.829.841a1.56 1.56 0 0 1 1.561 0l11.957 6.904c.483.279.78.794.78 1.352v13.807c0 .558-.298 1.073-.78 1.352L16.39 31.16a1.56 1.56 0 0 1-1.561 0L2.872 24.256a1.56 1.56 0 0 1-.78-1.352V9.097c0-.558.298-1.073.78-1.352L14.829.841z"/><path fill="#4ac18e" style="fill:var(--color3,#4ac18e)" opacity=".7" d="M22.906 15.491h-.704a6.619 6.619 0 0 0-6.082-6.082v-.704a.51.51 0 0 0-1.018 0v.704a6.619 6.619 0 0 0-6.082 6.082h-.704a.51.51 0 0 0 0 1.018h.704a6.618 6.618 0 0 0 6.082 6.082v.704a.51.51 0 0 0 1.018 0v-.704a6.619 6.619 0 0 0 6.082-6.082h.704a.51.51 0 0 0 0-1.018zm-6.787-5.064a5.604 5.604 0 0 1 5.064 5.064h-1.022a4.588 4.588 0 0 0-4.042-4.042v-1.022zm-1.018 0v1.022a4.588 4.588 0 0 0-4.042 4.042h-1.022a5.605 5.605 0 0 1 5.064-5.064zm0 11.146a5.604 5.604 0 0 1-5.064-5.064h1.022a4.588 4.588 0 0 0 4.042 4.042v1.022zm.509-3.028a.51.51 0 0 0-.509.509v.468a3.564 3.564 0 0 1-3.013-3.013h.468a.51.51 0 0 0 0-1.018h-.468a3.564 3.564 0 0 1 3.013-3.013v.468a.51.51 0 0 0 1.018 0v-.468a3.564 3.564 0 0 1 3.013 3.013h-.468a.507.507 0 1 0 0 1.015h.468a3.568 3.568 0 0 1-3.013 3.017v-.468a.51.51 0 0 0-.509-.509zm.509 3.028v-1.022a4.592 4.592 0 0 0 4.042-4.046h1.022a5.608 5.608 0 0 1-5.064 5.068z"/><path fill="#4ac18e" style="fill:var(--color3,#4ac18e)" opacity=".7" d="M15.61 14.473c-.842 0-1.527.685-1.527 1.527s.685 1.527 1.527 1.527c.842 0 1.527-.685 1.527-1.527s-.685-1.527-1.527-1.527z"/></symbol><symbol id="icon-card_icon1" viewBox="0 0 31 32"><path fill="#3b3d4f" style="fill:var(--color1,#3b3d4f)" d="M14.829.841a1.56 1.56 0 0 1 1.561 0l11.957 6.904c.483.279.78.794.78 1.352v13.807c0 .558-.298 1.073-.78 1.352L16.39 31.16a1.56 1.56 0 0 1-1.561 0L2.872 24.256a1.56 1.56 0 0 1-.78-1.352V9.097c0-.558.298-1.073.78-1.352L14.829.841z"/><path fill="#3b3d4f" style="fill:var(--color1,#3b3d4f);stroke:var(--color2,#49bd8c)" opacity=".5" stroke="#49bd8c" stroke-width="1.171" d="M14.829.841a1.56 1.56 0 0 1 1.561 0l11.957 6.904c.483.279.78.794.78 1.352v13.807c0 .558-.298 1.073-.78 1.352L16.39 31.16a1.56 1.56 0 0 1-1.561 0L2.872 24.256a1.56 1.56 0 0 1-.78-1.352V9.097c0-.558.298-1.073.78-1.352L14.829.841z"/><path fill="#4ac18e" style="fill:var(--color3,#4ac18e)" opacity=".7" d="M22.927 12.039c-.007-.141-.063-.275-.158-.38s-.224-.172-.364-.191l-6.341-1.249a2.237 2.237 0 0 0-.878 0l-6.341 1.249a.61.61 0 0 0-.551.57v7.6a1.343 1.343 0 0 0 1.054 1.21l5.288 1.702a3.23 3.23 0 0 0 1.922 0l5.302-1.702a1.337 1.337 0 0 0 1.068-1.21v-7.6zm-7.566-.863c.161-.033.327-.033.488 0l4.702.922-4.19 1.049a3.128 3.128 0 0 1-1.502 0l-4.19-1.049 4.693-.922zm-6.093 1.575 5.366 1.341c.16.043.323.074.488.093v4.546c-.059 0-.117 0-.176-.039l-5.298-1.717c-.268-.083-.38-.224-.38-.283v-3.941zm.381 7.151c-.268-.083-.38-.224-.38-.278v-1.756l.078.034 5.288 1.717c.159.051.322.088.488.112v1.951a1.087 1.087 0 0 1-.176-.039l-5.298-1.741z"/></symbol><symbol id="icon-card_icon3" viewBox="0 0 29 32"><path fill="#3b3d4f" style="fill:var(--color1,#3b3d4f)" d="M14.041 3.316a1.307 1.307 0 0 1 1.306 0l10.005 5.777c.404.233.653.665.653 1.131v11.553c0 .467-.249.898-.653 1.131l-10.005 5.777a1.307 1.307 0 0 1-1.306 0L4.036 22.908a1.306 1.306 0 0 1-.653-1.131V10.224c0-.467.249-.898.653-1.131l10.005-5.777z"/><path fill="none" stroke="#4ac18e" style="stroke:var(--color3,#387463)" stroke-width=".98" d="M14.041 3.316a1.307 1.307 0 0 1 1.306 0l10.005 5.777c.404.233.653.665.653 1.131v11.553c0 .467-.249.898-.653 1.131l-10.005 5.777a1.307 1.307 0 0 1-1.306 0L4.036 22.908a1.306 1.306 0 0 1-.653-1.131V10.224c0-.467.249-.898.653-1.131l10.005-5.777z"/><path fill="#3b3d4f" style="fill:var(--color3,#45997b)" d="M20.077 9.469c-.498 0-.919.321-1.078.765h-1.244a.38.38 0 0 0-.212.064l-1.386.924a4.767 4.767 0 0 0-.445-.117c.29.56.511 1.341.66 2.19h2.507a5.02 5.02 0 0 0-1.874-1.719l.866-.577h1.128c.159.444.579.765 1.078.765.633 0 1.148-.515 1.148-1.148s-.515-1.148-1.148-1.148zM14.694 11c-.249 0-.648.922-.904 2.296h1.808c-.256-1.374-.655-2.296-.904-2.296zM13.669 14.061a15.52 15.52 0 0 0-.117 1.556h2.283a15.52 15.52 0 0 0-.117-1.556h-2.05zM10.103 14.061a5.076 5.076 0 0 0-.364 1.556h3.048c.013-.498.05-1.043.113-1.556h-2.797zM15.835 16.383h-2.283c.014.537.055 1.078.117 1.556h2.05a15.52 15.52 0 0 0 .117-1.556zM19.285 17.939c.2-.477.323-1.018.364-1.556h-3.048c-.013.498-.05 1.043-.113 1.556h2.797zM14.694 21c.249 0 .648-.922.904-2.296H13.79c.256 1.374.655 2.296.904 2.296zM13.676 11.106a4.986 4.986 0 0 0-3.167 2.19h2.507c.15-.849.37-1.63.66-2.19zM9.337 22.531c.498 0 .919-.321 1.078-.765h1.218a.38.38 0 0 0 .212-.064l1.386-.924c.146.045.294.086.445.117-.29-.56-.511-1.341-.66-2.19h-2.507a5.02 5.02 0 0 0 1.874 1.719l-.866.577h-1.103a1.147 1.147 0 0 0-1.078-.765c-.633 0-1.174.515-1.174 1.148s.54 1.148 1.174 1.148zM9.739 16.383c.041.538.165 1.079.364 1.556H12.9c-.063-.513-.1-1.058-.113-1.556H9.739zM15.712 20.894a4.986 4.986 0 0 0 3.167-2.19h-2.507c-.15.849-.37 1.63-.66 2.19zM19.649 15.617a5.105 5.105 0 0 0-.364-1.556h-2.797c.063.513.1 1.058.113 1.556h3.048z"/></symbol></defs></svg>