<svg width="72" height="36" viewBox="0 0 72 36" fill="none" xmlns="http://www.w3.org/2000/svg">
<g filter="url(#filter0_d_1_878)">
<g clip-path="url(#clip0_1_878)">
<path d="M21.0786 9.25126C20.3271 8.74132 17.8999 8.45757 13.3907 8.08281C10.6985 7.85929 7.35266 7.5809 6.87158 7.22889C6.71665 7.06025 6.55357 6.60786 6.55357 5.83693C6.55357 4.49716 6.88381 3.56695 7.53477 3.07307C7.97917 2.72374 9.38845 2.13884 13.8392 2.13884C16.3914 2.13884 19.2127 2.36905 20.8775 2.59659C20.8829 2.59792 21.0256 2.61532 21.186 2.61532C21.4088 2.61532 21.5556 2.58186 21.6331 2.5136C21.7391 2.41991 21.7445 2.23387 21.7364 2.06389C21.7364 2.05318 21.735 2.04515 21.735 2.0398C21.735 1.61552 21.2662 0.874026 20.7198 0.61437C20.0254 0.257009 17.0886 3.05176e-05 13.7359 3.05176e-05C9.32322 3.05176e-05 6.88924 0.463127 5.59819 1.54726C4.55311 2.45873 4 4.07421 4 6.21838C4 7.47516 4.58845 8.657 5.15515 9.07057C5.80476 9.57784 8.22786 9.86292 12.7656 10.2404C15.5543 10.4732 18.7126 10.7356 19.2902 11.0796C19.562 11.3379 19.6992 11.8465 19.6992 12.5906C19.6992 13.8595 19.3649 14.8807 18.8023 15.3224L18.7846 15.3371C18.1608 15.8738 16.1699 16.1361 12.699 16.1361C10.034 16.1361 7.4111 15.9407 4.90102 15.5539L4.87656 15.5513C4.8521 15.5486 4.82763 15.5472 4.80453 15.5472C4.47429 15.5472 4.20657 15.8109 4.20657 16.1348C4.20657 16.5256 4.61291 17.223 5.03013 17.5469L5.05323 17.5629C5.70555 18.0126 8.83942 18.3258 12.6745 18.3258C17.1946 18.3258 19.706 17.8788 20.8177 16.875C21.8111 15.9608 22.3588 14.2771 22.3588 12.1329C22.3574 10.757 21.6956 9.67421 21.0786 9.25126Z" fill="#015BBB"/>
<path d="M67.3939 15.4709H67.3559L67.3178 15.4763C66.1599 15.6355 63.446 16.009 60.1517 16.009C55.7485 16.009 53.7046 15.6556 52.6119 14.7053C51.594 13.8005 51.0994 11.999 51.0994 9.20037C51.0994 6.51548 51.749 4.50917 52.9272 3.55353C54.1313 2.64875 56.5205 2.18967 60.0267 2.18967C63.2516 2.18967 65.5919 2.4868 67.1398 2.68355L67.2254 2.69426C67.2702 2.70497 67.3151 2.70898 67.3599 2.70898C67.6888 2.70898 67.947 2.44799 67.947 2.11472C67.947 1.68508 67.4741 0.993115 66.974 0.689291L66.9468 0.67323L66.9264 0.663861C66.1232 0.278393 63.1579 0 59.8759 0C55.5814 0 52.7356 0.6304 51.1755 1.92868C49.4849 3.35009 48.5906 5.92657 48.5906 9.37838C48.5906 12.77 49.2525 15.0292 50.6142 16.2847C52.1132 17.6606 54.7239 18.2227 59.6258 18.2227C63.1266 18.2227 66.1273 17.9363 66.9196 17.5267C67.4034 17.2885 68 16.464 68 16.0317C67.9987 15.7225 67.7269 15.4709 67.3939 15.4709Z" fill="#015BBB"/>
<path d="M35.4676 0C29.5872 0 24.8035 4.68183 24.8035 10.4357C24.8035 13.4124 26.1068 16.2539 28.3777 18.2334C28.5856 18.4168 28.8547 18.5172 29.136 18.5172C29.4622 18.5172 29.7748 18.3793 29.9922 18.1397C30.1933 17.9189 30.2953 17.6338 30.2776 17.338C30.2599 17.0396 30.124 16.7665 29.8957 16.5671C28.11 15.0118 27.0853 12.7767 27.0853 10.4344C27.0853 5.90917 30.8457 2.22849 35.4663 2.22849C40.0882 2.22849 43.8472 5.90917 43.8472 10.4344C43.8472 12.7753 42.8212 15.0105 41.0327 16.5698C40.8071 16.7665 40.6726 17.0396 40.6549 17.3354C40.6373 17.6325 40.7378 17.9176 40.939 18.1397C41.155 18.378 41.4663 18.5158 41.7924 18.5158C42.0737 18.5158 42.3428 18.4155 42.5521 18.2321C44.8257 16.2539 46.129 13.4111 46.129 10.4344C46.1317 4.68183 41.348 0 35.4676 0Z" fill="#015BBB"/>
<path d="M35.4674 10.682C34.8315 10.682 34.3152 11.192 34.3152 11.8184V25.6537C34.3152 26.2801 34.8315 26.7887 35.4674 26.7887C36.1033 26.7887 36.6196 26.2801 36.6196 25.6537V11.8184C36.6196 11.192 36.1033 10.682 35.4674 10.682Z" fill="#015BBB"/>
<path d="M67.8094 27.3828V27.3829C67.8999 27.3829 67.9723 27.4062 68.0278 27.4468C68.077 27.4829 68.1024 27.5261 68.1104 27.54M67.8094 27.3828L67.9834 27.6199M67.8094 27.3828L67.8032 27.383C66.8679 27.4217 63.4764 27.4471 61.5797 27.4471C60.1044 27.4471 58.9411 27.4471 57.9733 27.4378C57.8247 27.433 57.7412 27.4191 57.6966 27.3973C57.6787 27.3885 57.6739 27.3817 57.672 27.3785C57.6696 27.3745 57.6635 27.362 57.6635 27.3308V25.2094C57.6635 25.1736 57.6652 25.1543 57.6669 25.1439C57.6788 25.1396 57.7032 25.1332 57.7498 25.1284C57.8079 25.1224 57.8873 25.1198 57.9974 25.1198H65.5045L65.5261 25.1198C65.7749 25.1198 65.9936 25.1198 66.1172 25.0973L66.1268 25.0955L66.1361 25.0926C66.2271 25.0634 66.3148 24.9982 66.3764 24.9387C66.4085 24.9076 66.4388 24.8731 66.4623 24.8382C66.481 24.8103 66.5134 24.7565 66.5134 24.6928C66.5134 24.5996 66.4496 24.5356 66.3956 24.503C66.336 24.4669 66.2605 24.4491 66.1759 24.4491H57.9824C57.8829 24.4491 57.8091 24.4486 57.7521 24.4451C57.7064 24.4423 57.6804 24.4379 57.666 24.4341C57.6648 24.4253 57.6635 24.4106 57.6635 24.3876V22.3023C57.6635 22.261 57.6682 22.2404 57.6719 22.2308C57.6741 22.2251 57.6752 22.2241 57.6789 22.2216C57.6859 22.2169 57.7042 22.2079 57.7455 22.2002C57.7864 22.1927 57.8416 22.1879 57.9165 22.1859C58.3159 22.1779 58.8758 22.1739 59.6771 22.1739H59.6771C60.0251 22.1739 60.374 22.1739 60.6957 22.1753H60.6963C60.8347 22.1753 60.9684 22.1756 61.0952 22.1759L61.117 22.176C61.2356 22.1763 61.348 22.1766 61.452 22.1766C62.9082 22.1766 66.2928 22.1967 67.3796 22.2087C67.3796 22.2087 67.3796 22.2087 67.3797 22.2087L67.8389 22.2141V22.2141H67.8407C67.9083 22.2141 67.9825 22.2004 68.0442 22.1566C68.1122 22.1083 68.1497 22.0337 68.1497 21.9503V21.935L68.1466 21.9199C68.1349 21.8636 68.1 21.8165 68.0762 21.788C68.0481 21.7544 68.0134 21.7212 67.9773 21.6915C67.9104 21.6365 67.8131 21.5732 67.7192 21.5553L67.7192 21.5552L67.7138 21.5544C67.6713 21.5479 67.5695 21.5438 67.4363 21.5404C67.2972 21.5368 67.1105 21.5337 66.8879 21.531C66.4425 21.5258 65.8513 21.5223 65.2059 21.5199C63.9151 21.5152 62.4059 21.5152 61.4098 21.5152H61.4098H61.4089C59.7523 21.5152 58.5542 21.5152 57.3832 21.534C57.2208 21.5341 57.0723 21.5631 56.9592 21.6316C56.8387 21.7046 56.7615 21.822 56.7615 21.9704V27.5155C56.7615 27.6869 56.8034 27.8441 56.9281 27.9531C57.0477 28.0577 57.2136 28.091 57.3969 28.0911M67.8094 27.3828L57.3969 28.0911M68.1104 27.54C68.1105 27.5402 68.1106 27.5403 68.1107 27.5405C68.1113 27.5415 68.1118 27.5424 68.1121 27.543L68.0573 27.5757L67.9834 27.6199M68.1104 27.54L68.1103 27.5399L68.1076 27.5359L67.9834 27.6199M68.1104 27.54L68.152 27.6014L68.1292 27.6691M67.9834 27.6199L67.9861 27.6239L67.9847 27.6279M68.1292 27.6691C68.1302 27.665 68.1311 27.661 68.1319 27.6569L68.0165 27.6342L67.9847 27.6279M68.1292 27.6691L68.1282 27.6718L68.1269 27.6759L67.9847 27.6279M68.1292 27.6691C68.1163 27.7196 68.0872 27.7632 68.0641 27.7932C68.0361 27.8297 68.0014 27.8656 67.9652 27.8981C67.8961 27.96 67.8027 28.0257 67.7144 28.0544L67.7031 28.058L67.6913 28.0599C67.649 28.0665 67.5515 28.0711 67.4246 28.0752C67.2923 28.0795 67.1152 28.0834 66.9039 28.087C66.4813 28.0943 65.9198 28.1002 65.3017 28.105C64.0654 28.1145 62.6013 28.1192 61.5661 28.1192C59.9352 28.1192 58.649 28.1099 57.3969 28.0911M67.9847 27.6279C67.9684 27.7109 67.7877 27.8729 67.6681 27.9117L57.398 28.0911C57.3976 28.0911 57.3973 28.0911 57.3969 28.0911" fill="#FFD501" stroke="#FFD501" stroke-width="0.3"/>
<path d="M51.8893 21.9188C51.8901 21.8247 51.8688 21.74 51.8206 21.6708C51.7719 21.601 51.7052 21.5606 51.6396 21.5392C51.5165 21.4989 51.3832 21.5201 51.3062 21.54L51.3061 21.5401L51.7393 21.9181M51.8893 21.9188C51.8893 21.9191 51.8893 21.9193 51.8893 21.9196L51.7393 21.9181M51.8893 21.9188V21.9181H51.7393M51.8893 21.9188V21.9208V21.9235V21.9262V21.9289V21.9316V21.9342V21.9369V21.9396V21.9422V21.9449V21.9475V21.9501V21.9528V21.9554V21.958V21.9606V21.9632V21.9658V21.9684V21.971V21.9736V21.9762V21.9788V21.9814V21.9839V21.9865V21.9891V21.9916V21.9942V21.9967V21.9992V22.0018V22.0043V22.0068V22.0093V22.0118V22.0143V22.0168V22.0193V22.0218V22.0243V22.0268V22.0293V22.0317V22.0342V22.0366V22.0391V22.0415V22.044V22.0464V22.0488V22.0513V22.0537V22.0561V22.0585V22.0609V22.0633V22.0657V22.0681V22.0705V22.0729V22.0752V22.0776V22.08V22.0823V22.0847V22.087V22.0893V22.0917V22.094V22.0963V22.0987V22.101V22.1033V22.1056V22.1079V22.1102V22.1125V22.1147V22.117V22.1193V22.1216V22.1238V22.1261V22.1283V22.1306V22.1328V22.135V22.1373V22.1395V22.1417V22.1439V22.1461V22.1483V22.1505V22.1527V22.1549V22.1571V22.1593V22.1614V22.1636V22.1658V22.1679V22.1701V22.1722V22.1744V22.1765V22.1786V22.1807V22.1829V22.185V22.1871V22.1892V22.1913V22.1934V22.1955V22.1975V22.1996V22.2017V22.2038V22.2058V22.2079V22.2099V22.212V22.214V22.216V22.2181V22.2201V22.2221V22.2241V22.2261V22.2281V22.2301V22.2321V22.2341V22.2361V22.2381V22.24V22.242V22.244V22.2459V22.2479V22.2498V22.2517V22.2537V22.2556V22.2575V22.2594V22.2614V22.2633V22.2652V22.2671V22.2689V22.2708V22.2727V22.2746V22.2765V22.2783V22.2802V22.282V22.2839V22.2857V22.2876V22.2894V22.2912V22.293V22.2949V22.2967V22.2985V22.3003V22.3021V22.3039V22.3057V22.3074V22.3092V22.311V22.3127V22.3145V22.3163V22.318V22.3197V22.3215V22.3232V22.3249V22.3267V22.3284V22.3301V22.3318V22.3335V22.3352V22.3369V22.3386V22.3403V22.3419V22.3436V22.3453V22.3469V22.3486V22.3502V22.3519V22.3535V22.3551V22.3568V22.3584V22.36V22.3616V22.3632V22.3648V22.3664V22.368V22.3696V22.3712V22.3727V22.3743V22.3759V22.3774V22.379V22.3805V22.3821V22.3836V22.3851V22.3867V22.3882V22.3897V22.3912V22.3927V22.3942V22.3957V22.3972V22.3987V22.4002V22.4017V22.4031V22.4046V22.406V22.4075V22.4089V22.4104V22.4118V22.4133V22.4147V22.4161V22.4175V22.4189V22.4203V22.4217V22.4231V22.4245V22.4259V22.4273V22.4287V22.43V22.4314V22.4327V22.4341V22.4354V22.4368V22.4381V22.4395V22.4408V22.4421V22.4434V22.4447V22.446V22.4473V22.4486V22.4499V22.4512V22.4525V22.4538V22.455V22.4563V22.4576V22.4588V22.4601V22.4613V22.4625V22.4638V22.465V22.4662V22.4674V22.4686V22.4698V22.471V22.4722V22.4734V22.4746V22.4758V22.477V22.4781V22.4793V22.4805V22.4816V22.4828V22.4839V22.485V22.4862V22.4873V22.4884V22.4895V22.4906V22.4917V22.4928V22.4939V22.495V22.4961V22.4972V22.4983V22.4993V22.5004V22.5015V22.5025V22.5036V22.5046V22.5056V22.5067V22.5077V22.5087V22.5097V22.5107V22.5117V22.5127V22.5137V22.5147V22.5157V22.5167V22.5177V22.5186V22.5196V22.5206V22.5215V22.5225V22.5234V22.5243V22.5253V22.5262V22.5271V22.528V22.5289V22.5298V22.5307V22.5316V22.5325V22.5334V22.5343V22.5352V22.536V22.5369V22.5378V22.5386V22.5395V22.5403V22.5411V22.542V22.5428V22.5436V22.5444V22.5452V22.5461V22.5469V22.5476V22.5484V22.5492V22.55V22.5508V22.5515V22.5523V22.5531V22.5538V22.5546V22.5553V22.556V22.5568V22.5575V22.5582V22.5589V22.5597V22.5604V22.5611V22.5618V22.5624V22.5631V22.5638V22.5645V22.5652V22.5658V22.5665V22.5671V22.5678V22.5684V22.5691V22.5697V22.5703V22.5709V22.5716V22.5722V22.5728V22.5734V22.574V22.5746V22.5751V22.5757V22.5763V22.5769V22.5774V22.578V22.5785V22.5791V22.5796V22.5802V22.5807V22.5812V22.5817V22.5823V22.5828V22.5833V22.5838V22.5843V22.5848V22.5853V22.5857V22.5862V22.5867V22.5871V22.5876V22.5881V22.5885V22.5889V22.5894V22.5898V22.5902V22.5907V22.5911V22.5915V22.5919V22.5923V22.5927V22.5931V22.5935V22.5939V22.5942V22.5946V22.595V22.5953V22.5957V22.596V22.5964V22.5967V22.597V22.5974V22.5977V22.598V22.5983V22.5986V22.5989V22.5992V22.5995V22.5998V22.6001V22.6004V22.6006V22.6009V22.6011V22.6014V22.6016V22.6019V22.6021V22.6024V22.6026V22.6028V22.603V22.6032V22.6035V22.6037V22.6039V22.604V22.6042V22.6044V22.6046V22.6048V22.6049V22.6051V22.6052V22.6054V22.6055V22.6057V22.6058V22.6059V22.6061V22.6062V22.6063V22.6064V22.6065V22.6066V22.6067V22.6068V22.6068V22.6069V22.607V22.6071V22.6071V22.6072V22.6072V22.6073V22.6073V22.6073V22.6074V22.6074V22.6074V22.6074V22.6074V27.8461C51.8893 27.8479 51.8893 27.85 51.8893 27.8524C51.8895 27.8833 51.89 27.9544 51.8598 28.0163C51.8405 28.0561 51.8089 28.0931 51.7624 28.1182C51.7183 28.1421 51.6704 28.15 51.6251 28.15H51.3832C51.3123 28.15 51.2492 28.1456 51.1964 28.1316C51.141 28.1169 51.0819 28.0874 51.0431 28.0269C51.0077 27.9717 51.0045 27.913 51.0041 27.8794C51.0038 27.8612 51.0046 27.8423 51.0051 27.8271C51.0057 27.8106 51.0063 27.7959 51.0063 27.7805V27.7802L51.0158 22.6602L51.1658 22.6596M51.7393 21.9181V22.6074V27.8461C51.7393 27.9197 51.7393 28 51.6251 28H51.3832C51.1489 28 51.1509 27.9456 51.155 27.8325C51.1556 27.8164 51.1563 27.799 51.1563 27.7805L51.1658 22.6596M51.1658 22.6596C51.1658 22.6596 51.1655 22.5972 51.1652 22.5278L51.1658 22.6596ZM40.6716 22.6074V21.9181C40.6716 21.6331 40.9352 21.6505 41.0698 21.6853L41.1073 21.54C41.0303 21.5201 40.8971 21.499 40.7738 21.5391C40.7082 21.5605 40.6415 21.6006 40.5924 21.67C40.5436 21.7389 40.5216 21.8237 40.5216 21.9181V21.9208V21.9235V21.9262V21.9289V21.9316V21.9342V21.9369V21.9396V21.9422V21.9449V21.9475V21.9501V21.9528V21.9554V21.958V21.9606V21.9632V21.9658V21.9684V21.971V21.9736V21.9762V21.9788V21.9814V21.9839V21.9865V21.9891V21.9916V21.9942V21.9967V21.9992V22.0018V22.0043V22.0068V22.0093V22.0118V22.0143V22.0168V22.0193V22.0218V22.0243V22.0268V22.0293V22.0317V22.0342V22.0366V22.0391V22.0415V22.044V22.0464V22.0488V22.0513V22.0537V22.0561V22.0585V22.0609V22.0633V22.0657V22.0681V22.0705V22.0729V22.0752V22.0776V22.08V22.0823V22.0847V22.087V22.0893V22.0917V22.094V22.0963V22.0987V22.101V22.1033V22.1056V22.1079V22.1102V22.1125V22.1147V22.117V22.1193V22.1216V22.1238V22.1261V22.1283V22.1306V22.1328V22.135V22.1373V22.1395V22.1417V22.1439V22.1461V22.1483V22.1505V22.1527V22.1549V22.1571V22.1593V22.1614V22.1636V22.1658V22.1679V22.1701V22.1722V22.1744V22.1765V22.1786V22.1807V22.1829V22.185V22.1871V22.1892V22.1913V22.1934V22.1955V22.1975V22.1996V22.2017V22.2038V22.2058V22.2079V22.2099V22.212V22.214V22.216V22.2181V22.2201V22.2221V22.2241V22.2261V22.2281V22.2301V22.2321V22.2341V22.2361V22.2381V22.24V22.242V22.244V22.2459V22.2479V22.2498V22.2517V22.2537V22.2556V22.2575V22.2594V22.2614V22.2633V22.2652V22.2671V22.2689V22.2708V22.2727V22.2746V22.2765V22.2783V22.2802V22.282V22.2839V22.2857V22.2876V22.2894V22.2912V22.293V22.2949V22.2967V22.2985V22.3003V22.3021V22.3039V22.3057V22.3074V22.3092V22.311V22.3127V22.3145V22.3163V22.318V22.3197V22.3215V22.3232V22.3249V22.3267V22.3284V22.3301V22.3318V22.3335V22.3352V22.3369V22.3386V22.3403V22.3419V22.3436V22.3453V22.3469V22.3486V22.3502V22.3519V22.3535V22.3551V22.3568V22.3584V22.36V22.3616V22.3632V22.3648V22.3664V22.368V22.3696V22.3712V22.3727V22.3743V22.3759V22.3774V22.379V22.3805V22.3821V22.3836V22.3851V22.3867V22.3882V22.3897V22.3912V22.3927V22.3942V22.3957V22.3972V22.3987V22.4002V22.4017V22.4031V22.4046V22.406V22.4075V22.4089V22.4104V22.4118V22.4133V22.4147V22.4161V22.4175V22.4189V22.4203V22.4217V22.4231V22.4245V22.4259V22.4273V22.4287V22.43V22.4314V22.4327V22.4341V22.4354V22.4368V22.4381V22.4395V22.4408V22.4421V22.4434V22.4447V22.446V22.4473V22.4486V22.4499V22.4512V22.4525V22.4538V22.455V22.4563V22.4576V22.4588V22.4601V22.4613V22.4625V22.4638V22.465V22.4662V22.4674V22.4686V22.4698V22.471V22.4722V22.4734V22.4746V22.4758V22.477V22.4781V22.4793V22.4805V22.4816V22.4828V22.4839V22.485V22.4862V22.4873V22.4884V22.4895V22.4906V22.4917V22.4928V22.4939V22.495V22.4961V22.4972V22.4983V22.4993V22.5004V22.5015V22.5025V22.5036V22.5046V22.5056V22.5067V22.5077V22.5087V22.5097V22.5107V22.5117V22.5127V22.5137V22.5147V22.5157V22.5167V22.5177V22.5186V22.5196V22.5206V22.5215V22.5225V22.5234V22.5243V22.5253V22.5262V22.5271V22.528V22.5289V22.5298V22.5307V22.5316V22.5325V22.5334V22.5343V22.5352V22.536V22.5369V22.5378V22.5386V22.5395V22.5403V22.5411V22.542V22.5428V22.5436V22.5444V22.5452V22.5461V22.5469V22.5476V22.5484V22.5492V22.55V22.5508V22.5515V22.5523V22.5531V22.5538V22.5546V22.5553V22.556V22.5568V22.5575V22.5582V22.5589V22.5597V22.5604V22.5611V22.5618V22.5624V22.5631V22.5638V22.5645V22.5652V22.5658V22.5665V22.5671V22.5678V22.5684V22.5691V22.5697V22.5703V22.5709V22.5716V22.5722V22.5728V22.5734V22.574V22.5746V22.5751V22.5757V22.5763V22.5769V22.5774V22.578V22.5785V22.5791V22.5796V22.5802V22.5807V22.5812V22.5817V22.5823V22.5828V22.5833V22.5838V22.5843V22.5848V22.5853V22.5857V22.5862V22.5867V22.5871V22.5876V22.5881V22.5885V22.5889V22.5894V22.5898V22.5902V22.5907V22.5911V22.5915V22.5919V22.5923V22.5927V22.5931V22.5935V22.5939V22.5942V22.5946V22.595V22.5953V22.5957V22.596V22.5964V22.5967V22.597V22.5974V22.5977V22.598V22.5983V22.5986V22.5989V22.5992V22.5995V22.5998V22.6001V22.6004V22.6006V22.6009V22.6011V22.6014V22.6016V22.6019V22.6021V22.6024V22.6026V22.6028V22.603V22.6032V22.6035V22.6037V22.6039V22.604V22.6042V22.6044V22.6046V22.6048V22.6049V22.6051V22.6052V22.6054V22.6055V22.6057V22.6058V22.6059V22.6061V22.6062V22.6063V22.6064V22.6065V22.6066V22.6067V22.6068V22.6068V22.6069V22.607V22.6071V22.6071V22.6072V22.6072V22.6073V22.6073V22.6073V22.6074V22.6074V22.6074V22.6074V22.6074L40.6716 22.6074ZM40.6716 22.6074H40.5216V27.8461C40.5216 27.8479 40.5216 27.85 40.5215 27.8524C40.5213 27.8833 40.5208 27.9544 40.551 28.0163C40.5704 28.0561 40.6019 28.0931 40.6484 28.1182C40.6926 28.1421 40.7404 28.15 40.7857 28.15H41.0276C41.0984 28.15 41.1614 28.1457 41.2141 28.1319C41.2692 28.1174 41.3286 28.0883 41.3676 28.0277C41.4032 27.9724 41.4063 27.9135 41.4068 27.88C41.407 27.8624 41.4063 27.8442 41.4058 27.8292L41.4057 27.8275C41.4051 27.811 41.4046 27.7961 41.4046 27.7805L41.4046 27.7802L41.3951 22.66L41.3951 22.6598L41.3951 22.6592L41.3951 22.6563L41.3951 22.6454L41.3952 22.6248M40.6716 22.6074L41.3952 22.6248M41.3952 22.6248C41.5304 22.7116 41.7182 22.8306 41.9413 22.9712C42.4065 23.2642 43.0266 23.6519 43.6466 24.0384C44.2665 24.4249 44.8865 24.8104 45.3514 25.0993L45.9132 25.4482L46.0706 25.5459L46.1121 25.5716L46.1228 25.5782L46.1255 25.5799L46.1261 25.5803L46.1263 25.5804L46.2054 25.4529M41.3952 22.6248L51.0158 22.6594L51.0158 22.6592L51.0158 22.6563L51.0157 22.6453L51.0156 22.6248C50.8805 22.7116 50.6927 22.8306 50.4695 22.9712C50.0043 23.2642 49.3842 23.6519 48.7643 24.0384C48.1443 24.4249 47.5244 24.8104 47.0594 25.0993L46.4976 25.4482L46.3402 25.5459L46.2987 25.5716L46.2881 25.5782L46.2854 25.5799L46.2847 25.5803L46.2845 25.5804L46.2054 25.4529M46.2054 25.4529L46.1264 25.5804L46.2054 25.6295L46.2845 25.5804L46.2054 25.4529ZM46.2068 24.8466L46.2882 24.7206L46.288 24.7205L46.2874 24.7201L46.2848 24.7184L46.2746 24.7119L46.235 24.6863L46.2068 24.6681L46.1786 24.6863L46.139 24.7119L46.1288 24.7184L46.1262 24.7201L46.1256 24.7205L46.1254 24.7206L46.2068 24.8466Z" fill="#FFD501" stroke="#FFD501" stroke-width="0.3"/>
<path d="M20.0154 21.5608L20.0154 21.5608C20.9002 21.5339 24.75 21.5152 26.0961 21.5152C27.3318 21.5152 28.1468 21.5302 28.7153 21.5744C29.2829 21.6185 29.618 21.6924 29.8872 21.8177C30.4953 22.0871 30.8165 22.6747 30.8151 23.4322M20.0154 21.5608L30.6651 23.432M20.0154 21.5608L20.0138 21.5609C19.8955 21.5658 19.7809 21.584 19.6942 21.6428C19.5922 21.7121 19.5561 21.8166 19.5561 21.9235V27.83C19.5561 27.8308 19.5561 27.8316 19.5561 27.8325C19.556 27.8661 19.5559 27.9548 19.6239 28.0229C19.6906 28.0896 19.7852 28.1005 19.8651 28.1005H20.1219C20.1892 28.1005 20.2735 28.0938 20.3414 28.0464C20.4246 27.9884 20.4445 27.9004 20.4445 27.83V25.6711C20.4445 25.5202 20.4745 25.5099 20.4757 25.5094C20.4758 25.5094 20.4758 25.5094 20.4758 25.5094C20.4853 25.5037 20.5078 25.4948 20.5595 25.4892C20.6106 25.4836 20.6757 25.4825 20.7634 25.4825L27.0597 25.4891L28.8141 27.8081L28.8189 27.8145L28.8243 27.8203C28.9305 27.9334 29.0181 28.02 29.1362 28.0671C29.2507 28.1127 29.38 28.1152 29.5466 28.1152H29.5887C29.659 28.1152 29.7541 28.0999 29.8204 28.0346L29.7151 27.9277L29.8204 28.0346C29.8446 28.0108 29.8734 27.9712 29.8809 27.9151C29.8886 27.8583 29.8715 27.8064 29.8452 27.7642L29.8457 27.7639L29.838 27.7537L28.1394 25.4782M20.0154 21.5608L28.1394 25.4782M30.8151 23.4322L30.6651 23.432M30.8151 23.4322C30.8151 23.4321 30.8151 23.432 30.8151 23.432H30.6651M30.8151 23.4322C30.8149 24.4863 30.1329 25.087 29.4954 25.2917M30.6651 23.432C30.6651 24.409 30.0372 24.9604 29.4488 25.1492M29.4954 25.2917C29.4957 25.2916 29.496 25.2915 29.4962 25.2914L29.4488 25.1492M29.4954 25.2917C29.1852 25.3951 28.7681 25.4541 28.1394 25.4782M29.4954 25.2917C29.4951 25.2918 29.4948 25.2919 29.4946 25.292L29.4488 25.1492M29.4488 25.1492L28.1394 25.4782M20.5242 22.2194V22.2195L20.53 22.2193C21.2452 22.1914 24.9796 22.1833 26.054 22.1833C27.1788 22.1833 27.9146 22.1961 28.4131 22.2314C28.9152 22.2671 29.1572 22.3248 29.3083 22.4023L29.3081 22.4026L29.3167 22.4063C29.4598 22.4688 29.6325 22.571 29.7691 22.7384C29.9035 22.9032 30.0095 23.1392 30.0095 23.4839C30.0083 24.0786 29.5775 24.5383 28.9867 24.7113C28.6966 24.7843 28.1862 24.8158 27.1385 24.8158H20.7933C20.6889 24.8158 20.6129 24.8128 20.5563 24.8056C20.4985 24.7982 20.4745 24.7878 20.4655 24.7822C20.4653 24.782 20.4651 24.7819 20.4648 24.7818C20.4623 24.7802 20.4602 24.779 20.4567 24.7683C20.4507 24.7501 20.4459 24.7172 20.4459 24.6553V22.2259C20.4474 22.2256 20.449 22.2253 20.4507 22.2249C20.4675 22.2217 20.4914 22.2194 20.5242 22.2194Z" fill="#FFD501" stroke="#FFD501" stroke-width="0.3"/>
<path d="M4.30938 21.5608L4.30938 21.5608L4.30593 21.5609C4.18827 21.5672 4.07427 21.586 3.98813 21.6445C3.88632 21.7136 3.85 21.8176 3.85 21.9249V27.8314C3.85 27.8322 3.85 27.833 3.85 27.8338C3.84995 27.8675 3.84982 27.9562 3.91785 28.0242C3.98451 28.0909 4.07917 28.1018 4.159 28.1018H4.41586C4.48315 28.1018 4.56744 28.0951 4.63535 28.0478C4.71858 27.9897 4.73845 27.9018 4.73845 27.8314V25.6725C4.73845 25.5215 4.76843 25.5112 4.76968 25.5108C4.7697 25.5108 4.76971 25.5108 4.76971 25.5108C4.77926 25.505 4.80178 25.4962 4.85347 25.4905C4.90454 25.485 4.96961 25.4839 5.05731 25.4839H11.6593C12.7411 25.4839 13.3691 25.4314 13.7895 25.2903C14.4251 25.0861 15.109 24.5039 15.109 23.448C15.109 22.6942 14.7909 22.0878 14.1812 21.8177C13.912 21.6924 13.5768 21.6185 13.0092 21.5744C12.4408 21.5302 11.6257 21.5152 10.39 21.5152C9.04399 21.5152 5.19413 21.5339 4.30938 21.5608ZM4.81812 22.206V22.2062L4.82398 22.2059C5.53911 22.178 9.27354 22.1699 10.3479 22.1699C11.4728 22.1699 12.2085 22.1827 12.7071 22.218C13.2091 22.2537 13.4511 22.3114 13.6022 22.3889L13.6021 22.3892L13.6106 22.3929C13.7537 22.4554 13.9265 22.5576 14.063 22.725C14.1974 22.8898 14.3034 23.1258 14.3035 23.4705C14.3023 24.0652 13.8715 24.5249 13.2793 24.6979C12.9892 24.7709 12.4789 24.8024 11.431 24.8024H5.0872C4.98289 24.8024 4.90681 24.7994 4.85024 24.7922C4.79243 24.7848 4.76841 24.7744 4.75948 24.7688C4.75923 24.7687 4.759 24.7685 4.75877 24.7684C4.75621 24.7669 4.75413 24.7656 4.75061 24.7549C4.74465 24.7367 4.73981 24.7038 4.73981 24.6419V22.2125C4.7413 22.2122 4.7429 22.2119 4.74461 22.2115C4.76146 22.2083 4.78537 22.206 4.81812 22.206Z" fill="#FFD501" stroke="#FFD501" stroke-width="0.3"/>
</g>
</g>
<defs>
<filter id="filter0_d_1_878" x="0" y="0" width="72" height="36" filterUnits="userSpaceOnUse" color-interpolation-filters="sRGB">
<feFlood flood-opacity="0" result="BackgroundImageFix"/>
<feColorMatrix in="SourceAlpha" type="matrix" values="0 0 0 0 0 0 0 0 0 0 0 0 0 0 0 0 0 0 127 0" result="hardAlpha"/>
<feOffset dy="4"/>
<feGaussianBlur stdDeviation="2"/>
<feComposite in2="hardAlpha" operator="out"/>
<feColorMatrix type="matrix" values="0 0 0 0 0 0 0 0 0 0 0 0 0 0 0 0 0 0 0.25 0"/>
<feBlend mode="normal" in2="BackgroundImageFix" result="effect1_dropShadow_1_878"/>
<feBlend mode="normal" in="SourceGraphic" in2="effect1_dropShadow_1_878" result="shape"/>
</filter>
<clipPath id="clip0_1_878">
<rect width="64" height="28" fill="white" transform="translate(4)"/>
</clipPath>
</defs>
</svg>
