<svg aria-hidden="true" style="position: absolute; width: 0; height: 0; overflow: hidden;" version="1.1" xmlns="http://www.w3.org/2000/svg" xmlns:xlink="http://www.w3.org/1999/xlink">
<defs>
<symbol id="icon-card_icon2" viewBox="0 0 31 32">
<path fill="#3b3d4f" style="fill: var(--color1, #3b3d4f)" d="M14.829 0.841c0.483-0.279 1.078-0.279 1.561 0l11.957 6.904c0.483 0.279 0.78 0.794 0.78 1.352v13.807c0 0.558-0.298 1.073-0.78 1.352l-11.957 6.904c-0.483 0.279-1.078 0.279-1.561 0l-11.957-6.904c-0.483-0.279-0.78-0.794-0.78-1.352v-13.807c0-0.558 0.298-1.073 0.78-1.352l11.957-6.904z"></path>
<path fill="#3b3d4f" style="fill: var(--color1, #3b3d4f); stroke: var(--color2, #49bd8c)" opacity="0.5" stroke="#49bd8c" stroke-linejoin="miter" stroke-linecap="butt" stroke-miterlimit="4" stroke-width="1.1707" d="M14.829 0.841c0.483-0.279 1.078-0.279 1.561 0l11.957 6.904c0.483 0.279 0.78 0.794 0.78 1.352v13.807c0 0.558-0.298 1.073-0.78 1.352l-11.957 6.904c-0.483 0.279-1.078 0.279-1.561 0l-11.957-6.904c-0.483-0.279-0.78-0.794-0.78-1.352v-13.807c0-0.558 0.298-1.073 0.78-1.352l11.957-6.904z"></path>
<path fill="#4ac18e" style="fill: var(--color3, #4ac18e)" opacity="0.7" d="M22.906 15.491h-0.704c-0.249-3.242-2.84-5.834-6.082-6.082v-0.704c0-0.281-0.228-0.509-0.509-0.509s-0.509 0.228-0.509 0.509v0.704c-3.242 0.249-5.834 2.84-6.082 6.082h-0.704c-0.281 0-0.509 0.228-0.509 0.509s0.228 0.509 0.509 0.509h0.704c0.249 3.243 2.84 5.834 6.082 6.082v0.704c0 0.281 0.228 0.509 0.509 0.509s0.509-0.228 0.509-0.509v-0.704c3.242-0.249 5.834-2.84 6.082-6.082h0.704c0.281 0 0.509-0.228 0.509-0.509s-0.228-0.509-0.509-0.509zM16.119 10.427c2.682 0.243 4.821 2.383 5.064 5.064h-1.022c-0.236-2.12-1.922-3.806-4.042-4.042l-0-1.022zM15.101 10.427v1.022c-2.12 0.236-3.806 1.922-4.042 4.042h-1.022c0.243-2.681 2.383-4.821 5.064-5.064zM15.101 21.573c-2.682-0.243-4.821-2.383-5.064-5.064h1.022c0.236 2.12 1.922 3.806 4.042 4.042l0 1.022zM15.61 18.545c-0.281 0-0.509 0.228-0.509 0.509v0.468c-1.557-0.224-2.789-1.456-3.013-3.013h0.468c0.281 0 0.509-0.228 0.509-0.509s-0.228-0.509-0.509-0.509h-0.468c0.224-1.557 1.456-2.789 3.013-3.013v0.468c0 0.281 0.228 0.509 0.509 0.509s0.509-0.228 0.509-0.509v-0.468c1.557 0.224 2.789 1.456 3.013 3.013h-0.468c-0.281 0-0.509 0.228-0.509 0.509s0.228 0.506 0.509 0.506h0.468c-0.224 1.557-1.456 2.793-3.013 3.017v-0.468c0-0.281-0.228-0.509-0.509-0.509zM16.119 21.573v-1.022c2.12-0.236 3.806-1.926 4.042-4.046h1.022c-0.243 2.682-2.383 4.825-5.064 5.068z"></path>
<path fill="#4ac18e" style="fill: var(--color3, #4ac18e)" opacity="0.7" d="M15.61 14.473c-0.842 0-1.527 0.685-1.527 1.527s0.685 1.527 1.527 1.527c0.842 0 1.527-0.685 1.527-1.527s-0.685-1.527-1.527-1.527z"></path>
</symbol>

<symbol id="icon-card_icon1" viewBox="0 0 31 32">
<path fill="#3b3d4f" style="fill: var(--color1, #3b3d4f)" d="M14.829 0.841c0.483-0.279 1.078-0.279 1.561 0l11.957 6.904c0.483 0.279 0.78 0.794 0.78 1.352v13.807c0 0.558-0.298 1.073-0.78 1.352l-11.957 6.904c-0.483 0.279-1.078 0.279-1.561 0l-11.957-6.904c-0.483-0.279-0.78-0.794-0.78-1.352v-13.807c0-0.558 0.298-1.073 0.78-1.352l11.957-6.904z"></path>
<path fill="#3b3d4f" style="fill: var(--color1, #3b3d4f); stroke: var(--color2, #49bd8c)" opacity="0.5" stroke="#49bd8c" stroke-linejoin="miter" stroke-linecap="butt" stroke-miterlimit="4" stroke-width="1.1707" d="M14.829 0.841c0.483-0.279 1.078-0.279 1.561 0l11.957 6.904c0.483 0.279 0.78 0.794 0.78 1.352v13.807c0 0.558-0.298 1.073-0.78 1.352l-11.957 6.904c-0.483 0.279-1.078 0.279-1.561 0l-11.957-6.904c-0.483-0.279-0.78-0.794-0.78-1.352v-13.807c0-0.558 0.298-1.073 0.78-1.352l11.957-6.904z"></path>
<path fill="#4ac18e" style="fill: var(--color3, #4ac18e)" opacity="0.7" d="M22.927 12.039c-0.007-0.141-0.063-0.275-0.158-0.38s-0.224-0.172-0.364-0.191l-6.341-1.249c-0.29-0.058-0.588-0.058-0.878 0l-6.341 1.249c-0.145 0.013-0.281 0.078-0.382 0.182s-0.161 0.243-0.169 0.388v7.6c0.022 0.288 0.136 0.562 0.326 0.78s0.445 0.369 0.728 0.43l5.288 1.702c0.626 0.195 1.296 0.195 1.922 0l5.302-1.702c0.285-0.058 0.544-0.208 0.736-0.426s0.309-0.493 0.332-0.784v-7.6zM15.361 11.176c0.161-0.033 0.327-0.033 0.488 0l4.702 0.922-4.19 1.049c-0.493 0.122-1.009 0.122-1.502 0l-4.19-1.049 4.693-0.922zM9.268 12.751l5.366 1.341c0.16 0.043 0.323 0.074 0.488 0.093v4.546c-0.059 0-0.117 0-0.176-0.039l-5.298-1.717c-0.268-0.083-0.38-0.224-0.38-0.283v-3.941zM9.649 19.902c-0.268-0.083-0.38-0.224-0.38-0.278v-1.756l0.078 0.034 5.288 1.717c0.159 0.051 0.322 0.088 0.488 0.112v1.951c-0.059-0.008-0.118-0.021-0.176-0.039l-5.298-1.741z"></path>
</symbol>

<symbol id="icon-card_icon3" viewBox="0 0 29 32">
<path fill="#3b3d4f" style="fill: var(--color1, #3b3d4f)" d="M14.041 3.316c0.404-0.233 0.902-0.233 1.306 0l10.005 5.777c0.404 0.233 0.653 0.665 0.653 1.131v11.553c0 0.467-0.249 0.898-0.653 1.131l-10.005 5.777c-0.404 0.233-0.902 0.233-1.306 0l-10.005-5.777c-0.404-0.233-0.653-0.665-0.653-1.131v-11.553c0-0.467 0.249-0.898 0.653-1.131l10.005-5.777z"></path>
<path fill="none" stroke="#4ac18e" style="stroke: var(--color3, #387463)" stroke-linejoin="miter" stroke-linecap="butt" stroke-miterlimit="4" stroke-width="0.9796" d="M14.041 3.316c0.404-0.233 0.902-0.233 1.306 0l10.005 5.777c0.404 0.233 0.653 0.665 0.653 1.131v11.553c0 0.467-0.249 0.898-0.653 1.131l-10.005 5.777c-0.404 0.233-0.902 0.233-1.306 0l-10.005-5.777c-0.404-0.233-0.653-0.665-0.653-1.131v-11.553c0-0.467 0.249-0.898 0.653-1.131l10.005-5.777z"></path>
<path fill="#3b3d4f" style="fill: var(--color3, #45997B)" d="M20.077 9.469c-0.498 0-0.919 0.321-1.078 0.765h-1.244c-0.076 0-0.149 0.022-0.212 0.064l-1.386 0.924c-0.146-0.045-0.294-0.086-0.445-0.117 0.29 0.56 0.511 1.341 0.66 2.19h2.507c-0.464-0.723-1.112-1.315-1.874-1.719l0.866-0.577h1.128c0.159 0.444 0.579 0.765 1.078 0.765 0.633 0 1.148-0.515 1.148-1.148s-0.515-1.148-1.148-1.148z"></path>
<path fill="#3b3d4f" style="fill: var(--color3, #45997B)" d="M14.694 11c-0.249 0-0.648 0.922-0.904 2.296h1.808c-0.256-1.374-0.655-2.296-0.904-2.296z"></path>
<path fill="#3b3d4f" style="fill: var(--color3, #45997B)" d="M13.669 14.061c-0.062 0.478-0.103 1.019-0.117 1.556h2.283c-0.014-0.537-0.055-1.078-0.117-1.556h-2.050z"></path>
<path fill="#3b3d4f" style="fill: var(--color3, #45997B)" d="M10.103 14.061c-0.2 0.477-0.323 1.018-0.364 1.556h3.048c0.013-0.498 0.050-1.043 0.113-1.556h-2.797z"></path>
<path fill="#3b3d4f" style="fill: var(--color3, #45997B)" d="M15.835 16.383h-2.283c0.014 0.537 0.055 1.078 0.117 1.556h2.050c0.062-0.478 0.103-1.019 0.117-1.556z"></path>
<path fill="#3b3d4f" style="fill: var(--color3, #45997B)" d="M19.285 17.939c0.2-0.477 0.323-1.018 0.364-1.556h-3.048c-0.013 0.498-0.050 1.043-0.113 1.556h2.797z"></path>
<path fill="#3b3d4f" style="fill: var(--color3, #45997B)" d="M14.694 21c0.249 0 0.648-0.922 0.904-2.296h-1.808c0.256 1.374 0.655 2.296 0.904 2.296z"></path>
<path fill="#3b3d4f" style="fill: var(--color3, #45997B)" d="M13.676 11.106c-1.326 0.277-2.458 1.086-3.167 2.19h2.507c0.15-0.849 0.37-1.63 0.66-2.19z"></path>
<path fill="#3b3d4f" style="fill: var(--color3, #45997B)" d="M9.337 22.531c0.498 0 0.919-0.321 1.078-0.765h1.218c0.076 0 0.149-0.022 0.212-0.064l1.386-0.924c0.146 0.045 0.294 0.086 0.445 0.117-0.29-0.56-0.511-1.341-0.66-2.19h-2.507c0.464 0.723 1.112 1.315 1.874 1.719l-0.866 0.577h-1.103c-0.159-0.444-0.579-0.765-1.078-0.765-0.633 0-1.174 0.515-1.174 1.148s0.54 1.148 1.174 1.148z"></path>
<path fill="#3b3d4f" style="fill: var(--color3, #45997B)" d="M9.739 16.383c0.041 0.538 0.165 1.079 0.364 1.556h2.797c-0.063-0.513-0.1-1.058-0.113-1.556h-3.048z"></path>
<path fill="#3b3d4f" style="fill: var(--color3, #45997B)" d="M15.712 20.894c1.326-0.277 2.458-1.086 3.167-2.19h-2.507c-0.15 0.849-0.37 1.63-0.66 2.19z"></path>
<path fill="#3b3d4f" style="fill: var(--color3, #45997B)" d="M19.649 15.617c-0.041-0.538-0.165-1.079-0.364-1.556h-2.797c0.063 0.513 0.1 1.058 0.113 1.556h3.048z"></path>
</symbol>
</defs>
</svg>
