<svg width="90" height="98" viewBox="0 0 90 98" fill="none" xmlns="http://www.w3.org/2000/svg">
<g filter="url(#filter0_dd_1_1108)">
<path d="M43 10.1547C44.2376 9.44017 45.7624 9.44017 47 10.1547L77.641 27.8453C78.8786 28.5598 79.641 29.8803 79.641 31.3094V66.6906C79.641 68.1197 78.8786 69.4402 77.641 70.1547L47 87.8453C45.7624 88.5598 44.2376 88.5598 43 87.8453L12.359 70.1547C11.1214 69.4402 10.359 68.1197 10.359 66.6906V31.3094C10.359 29.8803 11.1214 28.5598 12.359 27.8453L43 10.1547Z" fill="#3B3D4F"/>
<path d="M43 10.1547C44.2376 9.44017 45.7624 9.44017 47 10.1547L77.641 27.8453C78.8786 28.5598 79.641 29.8803 79.641 31.3094V66.6906C79.641 68.1197 78.8786 69.4402 77.641 70.1547L47 87.8453C45.7624 88.5598 44.2376 88.5598 43 87.8453L12.359 70.1547C11.1214 69.4402 10.359 68.1197 10.359 66.6906V31.3094C10.359 29.8803 11.1214 28.5598 12.359 27.8453L43 10.1547Z" stroke="#4AC18E" stroke-width="3"/>
</g>
<g clip-path="url(#clip0_1_1108)">
<path d="M61.4844 29C59.9585 29 58.67 29.9827 58.1845 31.3438H54.375C54.1437 31.3438 53.9172 31.4124 53.725 31.5406L49.4809 34.3696C49.0341 34.2316 48.5812 34.1077 48.1177 34.011C49.0073 35.727 49.6811 38.1177 50.1398 40.7188H57.8168C56.3947 38.5044 54.4122 36.6904 52.0779 35.4551L54.7296 33.6875H58.1845C58.67 35.0486 59.9585 36.0312 61.4844 36.0312C63.4229 36.0312 65 34.4541 65 32.5156C65 30.5771 63.4229 29 61.4844 29Z" fill="#4AC18E"/>
<path d="M45 33.6875C44.2374 33.6875 43.0157 36.5098 42.2321 40.7188H47.7679C46.9843 36.5098 45.7626 33.6875 45 33.6875Z" fill="#4AC18E"/>
<path d="M41.8613 43.0625C41.6724 44.5258 41.5472 46.1829 41.5045 47.8281H48.4955C48.4528 46.1829 48.3276 44.5258 48.1387 43.0625H41.8613Z" fill="#4AC18E"/>
<path d="M30.9412 43.0625C30.3299 44.5237 29.9515 46.1799 29.8251 47.8281H39.1599C39.1998 46.3026 39.3143 44.6332 39.5065 43.0625H30.9412Z" fill="#4AC18E"/>
<path d="M48.4955 50.1719H41.5045C41.5472 51.8171 41.6724 53.4742 41.8613 54.9375H48.1387C48.3276 53.4742 48.4528 51.8171 48.4955 50.1719Z" fill="#4AC18E"/>
<path d="M59.0591 54.9375C59.6704 53.4766 60.0485 51.8201 60.1749 50.1719H50.8401C50.8002 51.6974 50.6857 53.3668 50.4935 54.9375H59.0591Z" fill="#4AC18E"/>
<path d="M45 64.3125C45.7626 64.3125 46.9843 61.4902 47.7679 57.2812H42.2321C43.0157 61.4902 44.2374 64.3125 45 64.3125Z" fill="#4AC18E"/>
<path d="M41.8823 34.011C37.8201 34.8594 34.3561 37.3356 32.1832 40.7188H39.8602C40.3189 38.1177 40.9927 35.727 41.8823 34.011Z" fill="#4AC18E"/>
<path d="M28.5938 69C30.1196 69 31.4081 68.0173 31.8936 66.6562H35.625C35.8563 66.6562 36.0828 66.5876 36.275 66.4594L40.5191 63.6304C40.9659 63.7684 41.4188 63.8923 41.8823 63.989C40.9927 62.2727 40.3189 59.8823 39.8602 57.2812H32.1832C33.6057 59.4956 35.5881 61.3096 37.9221 62.5449L35.2704 64.3125H31.8936C31.4081 62.9514 30.1196 61.9688 28.5938 61.9688C26.6553 61.9688 25 63.5459 25 65.4844C25 67.4229 26.6553 69 28.5938 69Z" fill="#4AC18E"/>
<path d="M29.8251 50.1719C29.9515 51.8201 30.3299 53.4766 30.9412 54.9375H39.5065C39.3143 53.3668 39.1998 51.6974 39.1599 50.1719H29.8251Z" fill="#4AC18E"/>
<path d="M48.1177 63.989C52.1799 63.1406 55.6439 60.6644 57.8168 57.2812H50.1398C49.6811 59.8823 49.0073 62.273 48.1177 63.989Z" fill="#4AC18E"/>
<path d="M60.1749 47.8281C60.0485 46.1799 59.6704 44.5237 59.0591 43.0625H50.4935C50.6857 44.6332 50.8002 46.3026 50.8401 47.8281H60.1749Z" fill="#4AC18E"/>
</g>
<defs>
<filter id="filter0_dd_1_1108" x="0.858978" y="0.118805" width="88.282" height="97.7624" filterUnits="userSpaceOnUse" color-interpolation-filters="sRGB">
<feFlood flood-opacity="0" result="BackgroundImageFix"/>
<feColorMatrix in="SourceAlpha" type="matrix" values="0 0 0 0 0 0 0 0 0 0 0 0 0 0 0 0 0 0 127 0" result="hardAlpha"/>
<feOffset/>
<feGaussianBlur stdDeviation="2"/>
<feComposite in2="hardAlpha" operator="out"/>
<feColorMatrix type="matrix" values="0 0 0 0 0.290196 0 0 0 0 0.756863 0 0 0 0 0.556863 0 0 0 0.7 0"/>
<feBlend mode="normal" in2="BackgroundImageFix" result="effect1_dropShadow_1_1108"/>
<feColorMatrix in="SourceAlpha" type="matrix" values="0 0 0 0 0 0 0 0 0 0 0 0 0 0 0 0 0 0 127 0" result="hardAlpha"/>
<feOffset/>
<feGaussianBlur stdDeviation="4"/>
<feComposite in2="hardAlpha" operator="out"/>
<feColorMatrix type="matrix" values="0 0 0 0 0.290196 0 0 0 0 0.756863 0 0 0 0 0.556863 0 0 0 0.7 0"/>
<feBlend mode="normal" in2="effect1_dropShadow_1_1108" result="effect2_dropShadow_1_1108"/>
<feBlend mode="normal" in="SourceGraphic" in2="effect2_dropShadow_1_1108" result="shape"/>
</filter>
<clipPath id="clip0_1_1108">
<rect width="40" height="40" fill="white" transform="translate(25 29)"/>
</clipPath>
</defs>
</svg>
